<svg xmlns="http://www.w3.org/2000/svg" viewBox="0 0 850 230" width="850" height="230" role="img" aria-label="Yudai - Neuroscience x Machine Learning">
  <defs>
    <style>
      @keyframes breathe {0%,100%{opacity:.55}50%{opacity:.82}}
      @keyframes spark {0%,100%{opacity:.5}50%{opacity:1}}
      .field{animation:breathe 6s ease-in-out infinite}
      .spark{animation:spark 2.8s ease-in-out infinite}
    </style>
    <filter id="glow" x="-30%" y="-30%" width="160%" height="160%"><feGaussianBlur stdDeviation="3.5"/></filter>
    <linearGradient id="scrim" gradientUnits="userSpaceOnUse" x1="0" y1="0" x2="560" y2="0">
      <stop offset="0" stop-color="#ffffff" stop-opacity="0.96"/><stop offset="0.6" stop-color="#ffffff" stop-opacity="0.86"/><stop offset="1" stop-color="#ffffff" stop-opacity="0"/>
    </linearGradient>
    <linearGradient id="metal" x1="0" y1="0" x2="0" y2="1">
      <stop offset="0" stop-color="#515154"/><stop offset="0.5" stop-color="#1d1d1f"/><stop offset="1" stop-color="#6e6e73"/>
    </linearGradient>
    <linearGradient id="sheen" gradientUnits="userSpaceOnUse" x1="0" y1="0" x2="150" y2="0">
      <stop offset="0" stop-color="#ffffff" stop-opacity="0"/><stop offset="0.5" stop-color="#ffffff" stop-opacity="0.9"/><stop offset="1" stop-color="#ffffff" stop-opacity="0"/>
    </linearGradient>
    <linearGradient id="edge" gradientUnits="userSpaceOnUse" x1="0" y1="0" x2="240" y2="0">
      <stop offset="0" stop-color="#1d1d1f" stop-opacity="0"/><stop offset="0.5" stop-color="#1d1d1f" stop-opacity="0.7"/><stop offset="1" stop-color="#1d1d1f" stop-opacity="0"/>
    </linearGradient>
    <linearGradient id="scan" gradientUnits="userSpaceOnUse" x1="0" y1="0" x2="0" y2="230">
      <stop offset="0" stop-color="#1d1d1f" stop-opacity="0"/><stop offset="0.5" stop-color="#1d1d1f" stop-opacity="0.55"/><stop offset="1" stop-color="#1d1d1f" stop-opacity="0"/>
    </linearGradient>
    <g id="field" fill="#1d1d1f"><circle cx="34" cy="44" r="0.9"/><circle cx="63" cy="44" r="0.9"/><circle cx="92" cy="44" r="0.9"/><circle cx="121" cy="44" r="0.9"/><circle cx="150" cy="44" r="0.9"/><circle cx="179" cy="44" r="0.9"/><circle cx="208" cy="44" r="0.9"/><circle cx="237" cy="44" r="0.9"/><circle cx="266" cy="44" r="0.9"/><circle cx="295" cy="44" r="0.9"/><circle cx="324" cy="44" r="0.9"/><circle cx="353" cy="44" r="0.9"/><circle cx="382" cy="44" r="0.9"/><circle cx="411" cy="44" r="0.9"/><circle cx="440" cy="44" r="0.9"/><circle cx="469" cy="44" r="0.9"/><circle cx="498" cy="44" r="0.9"/><circle cx="527" cy="44" r="0.9"/><circle cx="556" cy="44" r="0.9"/><circle cx="585" cy="44" r="0.9"/><circle cx="614" cy="44" r="0.9"/><circle cx="643" cy="44" r="0.9"/><circle cx="672" cy="44" r="0.9"/><circle cx="701" cy="44" r="0.9"/><circle cx="730" cy="44" r="0.9"/><circle cx="759" cy="44" r="0.9"/><circle cx="788" cy="44" r="0.9"/><circle cx="34" cy="74" r="0.9"/><circle cx="63" cy="74" r="0.9"/><circle cx="92" cy="74" r="0.9"/><circle cx="121" cy="74" r="0.9"/><circle cx="150" cy="74" r="0.9"/><circle cx="179" cy="74" r="0.9"/><circle cx="208" cy="74" r="0.9"/><circle cx="237" cy="74" r="0.9"/><circle cx="266" cy="74" r="0.9"/><circle cx="295" cy="74" r="0.9"/><circle cx="324" cy="74" r="0.9"/><circle cx="353" cy="74" r="0.9"/><circle cx="382" cy="74" r="0.9"/><circle cx="411" cy="74" r="0.9"/><circle cx="440" cy="74" r="0.9"/><circle cx="469" cy="74" r="0.9"/><circle cx="498" cy="74" r="0.9"/><circle cx="527" cy="74" r="0.9"/><circle cx="556" cy="74" r="0.9"/><circle cx="585" cy="74" r="0.9"/><circle cx="614" cy="74" r="0.9"/><circle cx="643" cy="74" r="0.9"/><circle cx="672" cy="74" r="0.9"/><circle cx="701" cy="74" r="0.9"/><circle cx="730" cy="74" r="0.9"/><circle cx="759" cy="74" r="0.9"/><circle cx="788" cy="74" r="0.9"/><circle cx="34" cy="104" r="0.9"/><circle cx="63" cy="104" r="0.9"/><circle cx="92" cy="104" r="0.9"/><circle cx="121" cy="104" r="0.9"/><circle cx="150" cy="104" r="0.9"/><circle cx="179" cy="104" r="0.9"/><circle cx="208" cy="104" r="0.9"/><circle cx="237" cy="104" r="0.9"/><circle cx="266" cy="104" r="0.9"/><circle cx="295" cy="104" r="0.9"/><circle cx="324" cy="104" r="0.9"/><circle cx="353" cy="104" r="0.9"/><circle cx="382" cy="104" r="0.9"/><circle cx="411" cy="104" r="0.9"/><circle cx="440" cy="104" r="0.9"/><circle cx="469" cy="104" r="0.9"/><circle cx="498" cy="104" r="0.9"/><circle cx="527" cy="104" r="0.9"/><circle cx="556" cy="104" r="0.9"/><circle cx="585" cy="104" r="0.9"/><circle cx="614" cy="104" r="0.9"/><circle cx="643" cy="104" r="0.9"/><circle cx="672" cy="104" r="0.9"/><circle cx="701" cy="104" r="0.9"/><circle cx="730" cy="104" r="0.9"/><circle cx="759" cy="104" r="0.9"/><circle cx="788" cy="104" r="0.9"/><circle cx="34" cy="134" r="0.9"/><circle cx="63" cy="134" r="0.9"/><circle cx="92" cy="134" r="0.9"/><circle cx="121" cy="134" r="0.9"/><circle cx="150" cy="134" r="0.9"/><circle cx="179" cy="134" r="0.9"/><circle cx="208" cy="134" r="0.9"/><circle cx="237" cy="134" r="0.9"/><circle cx="266" cy="134" r="0.9"/><circle cx="295" cy="134" r="0.9"/><circle cx="324" cy="134" r="0.9"/><circle cx="353" cy="134" r="0.9"/><circle cx="382" cy="134" r="0.9"/><circle cx="411" cy="134" r="0.9"/><circle cx="440" cy="134" r="0.9"/><circle cx="469" cy="134" r="0.9"/><circle cx="498" cy="134" r="0.9"/><circle cx="527" cy="134" r="0.9"/><circle cx="556" cy="134" r="0.9"/><circle cx="585" cy="134" r="0.9"/><circle cx="614" cy="134" r="0.9"/><circle cx="643" cy="134" r="0.9"/><circle cx="672" cy="134" r="0.9"/><circle cx="701" cy="134" r="0.9"/><circle cx="730" cy="134" r="0.9"/><circle cx="759" cy="134" r="0.9"/><circle cx="788" cy="134" r="0.9"/><circle cx="34" cy="164" r="0.9"/><circle cx="63" cy="164" r="0.9"/><circle cx="92" cy="164" r="0.9"/><circle cx="121" cy="164" r="0.9"/><circle cx="150" cy="164" r="0.9"/><circle cx="179" cy="164" r="0.9"/><circle cx="208" cy="164" r="0.9"/><circle cx="237" cy="164" r="0.9"/><circle cx="266" cy="164" r="0.9"/><circle cx="295" cy="164" r="0.9"/><circle cx="324" cy="164" r="0.9"/><circle cx="353" cy="164" r="0.9"/><circle cx="382" cy="164" r="0.9"/><circle cx="411" cy="164" r="0.9"/><circle cx="440" cy="164" r="0.9"/><circle cx="469" cy="164" r="0.9"/><circle cx="498" cy="164" r="0.9"/><circle cx="527" cy="164" r="0.9"/><circle cx="556" cy="164" r="0.9"/><circle cx="585" cy="164" r="0.9"/><circle cx="614" cy="164" r="0.9"/><circle cx="643" cy="164" r="0.9"/><circle cx="672" cy="164" r="0.9"/><circle cx="701" cy="164" r="0.9"/><circle cx="730" cy="164" r="0.9"/><circle cx="759" cy="164" r="0.9"/><circle cx="788" cy="164" r="0.9"/><circle cx="34" cy="194" r="0.9"/><circle cx="63" cy="194" r="0.9"/><circle cx="92" cy="194" r="0.9"/><circle cx="121" cy="194" r="0.9"/><circle cx="150" cy="194" r="0.9"/><circle cx="179" cy="194" r="0.9"/><circle cx="208" cy="194" r="0.9"/><circle cx="237" cy="194" r="0.9"/><circle cx="266" cy="194" r="0.9"/><circle cx="295" cy="194" r="0.9"/><circle cx="324" cy="194" r="0.9"/><circle cx="353" cy="194" r="0.9"/><circle cx="382" cy="194" r="0.9"/><circle cx="411" cy="194" r="0.9"/><circle cx="440" cy="194" r="0.9"/><circle cx="469" cy="194" r="0.9"/><circle cx="498" cy="194" r="0.9"/><circle cx="527" cy="194" r="0.9"/><circle cx="556" cy="194" r="0.9"/><circle cx="585" cy="194" r="0.9"/><circle cx="614" cy="194" r="0.9"/><circle cx="643" cy="194" r="0.9"/><circle cx="672" cy="194" r="0.9"/><circle cx="701" cy="194" r="0.9"/><circle cx="730" cy="194" r="0.9"/><circle cx="759" cy="194" r="0.9"/><circle cx="788" cy="194" r="0.9"/></g>
    <clipPath id="yclip"><text x="59" y="120" font-family="ui-sans-serif,-apple-system,'Segoe UI',Helvetica,Arial,sans-serif" font-size="58" font-weight="200" letter-spacing="1">YUDAI</text></clipPath>
  </defs>

  <rect width="850" height="230" rx="12" fill="#ffffff"/>
  <g class="field" opacity="0.65"><use href="#field"/></g>
  <path d="M585,104 L614,74 L643,104 L672,74 L701,104 L730,74" fill="none" stroke="#86868b" stroke-width="0.6" opacity="0.18"/><path d="M556,164 L585,134 L614,164 L643,134 L672,164 L701,134" fill="none" stroke="#86868b" stroke-width="0.6" opacity="0.18"/><path d="M730,44 L759,74 L788,44" fill="none" stroke="#86868b" stroke-width="0.6" opacity="0.18"/><g transform="translate(585,74)"><circle r="1" fill="#1d1d1f" opacity="0.25"><animate attributeName="r" values="1;5.5;1" dur="2.8s" begin="0s" repeatCount="indefinite"/><animate attributeName="opacity" values="0.25;0;0.25" dur="2.8s" begin="0s" repeatCount="indefinite"/></circle><circle class="spark" style="animation-delay:0s" r="1.3" fill="#1d1d1f"/></g><g transform="translate(643,134)"><circle r="1" fill="#1d1d1f" opacity="0.25"><animate attributeName="r" values="1;5.5;1" dur="2.8s" begin="0.5s" repeatCount="indefinite"/><animate attributeName="opacity" values="0.25;0;0.25" dur="2.8s" begin="0.5s" repeatCount="indefinite"/></circle><circle class="spark" style="animation-delay:0.5s" r="1.3" fill="#1d1d1f"/></g><g transform="translate(701,44)"><circle r="1" fill="#1d1d1f" opacity="0.25"><animate attributeName="r" values="1;5.5;1" dur="2.8s" begin="1.0s" repeatCount="indefinite"/><animate attributeName="opacity" values="0.25;0;0.25" dur="2.8s" begin="1.0s" repeatCount="indefinite"/></circle><circle class="spark" style="animation-delay:1.0s" r="1.3" fill="#1d1d1f"/></g><g transform="translate(730,164)"><circle r="1" fill="#1d1d1f" opacity="0.25"><animate attributeName="r" values="1;5.5;1" dur="2.8s" begin="1.5s" repeatCount="indefinite"/><animate attributeName="opacity" values="0.25;0;0.25" dur="2.8s" begin="1.5s" repeatCount="indefinite"/></circle><circle class="spark" style="animation-delay:1.5s" r="1.3" fill="#1d1d1f"/></g><g transform="translate(672,104)"><circle r="1" fill="#1d1d1f" opacity="0.25"><animate attributeName="r" values="1;5.5;1" dur="2.8s" begin="2.0s" repeatCount="indefinite"/><animate attributeName="opacity" values="0.25;0;0.25" dur="2.8s" begin="2.0s" repeatCount="indefinite"/></circle><circle class="spark" style="animation-delay:2.0s" r="1.3" fill="#1d1d1f"/></g><g transform="translate(759,194)"><circle r="1" fill="#1d1d1f" opacity="0.25"><animate attributeName="r" values="1;5.5;1" dur="2.8s" begin="0.8s" repeatCount="indefinite"/><animate attributeName="opacity" values="0.25;0;0.25" dur="2.8s" begin="0.8s" repeatCount="indefinite"/></circle><circle class="spark" style="animation-delay:0.8s" r="1.3" fill="#1d1d1f"/></g><g transform="translate(614,164)"><circle r="1" fill="#1d1d1f" opacity="0.25"><animate attributeName="r" values="1;5.5;1" dur="2.8s" begin="1.3s" repeatCount="indefinite"/><animate attributeName="opacity" values="0.25;0;0.25" dur="2.8s" begin="1.3s" repeatCount="indefinite"/></circle><circle class="spark" style="animation-delay:1.3s" r="1.3" fill="#1d1d1f"/></g><g transform="translate(788,74)"><circle r="1" fill="#1d1d1f" opacity="0.25"><animate attributeName="r" values="1;5.5;1" dur="2.8s" begin="2.4s" repeatCount="indefinite"/><animate attributeName="opacity" values="0.25;0;0.25" dur="2.8s" begin="2.4s" repeatCount="indefinite"/></circle><circle class="spark" style="animation-delay:2.4s" r="1.3" fill="#1d1d1f"/></g><g transform="translate(556,104)"><circle r="1" fill="#1d1d1f" opacity="0.25"><animate attributeName="r" values="1;5.5;1" dur="2.8s" begin="0.4s" repeatCount="indefinite"/><animate attributeName="opacity" values="0.25;0;0.25" dur="2.8s" begin="0.4s" repeatCount="indefinite"/></circle><circle class="spark" style="animation-delay:0.4s" r="1.3" fill="#1d1d1f"/></g><g transform="translate(643,194)"><circle r="1" fill="#1d1d1f" opacity="0.25"><animate attributeName="r" values="1;5.5;1" dur="2.8s" begin="1.8s" repeatCount="indefinite"/><animate attributeName="opacity" values="0.25;0;0.25" dur="2.8s" begin="1.8s" repeatCount="indefinite"/></circle><circle class="spark" style="animation-delay:1.8s" r="1.3" fill="#1d1d1f"/></g><g transform="translate(701,134)"><circle r="1" fill="#1d1d1f" opacity="0.25"><animate attributeName="r" values="1;5.5;1" dur="2.8s" begin="1.1s" repeatCount="indefinite"/><animate attributeName="opacity" values="0.25;0;0.25" dur="2.8s" begin="1.1s" repeatCount="indefinite"/></circle><circle class="spark" style="animation-delay:1.1s" r="1.3" fill="#1d1d1f"/></g><g transform="translate(730,44)"><circle r="1" fill="#1d1d1f" opacity="0.25"><animate attributeName="r" values="1;5.5;1" dur="2.8s" begin="2.2s" repeatCount="indefinite"/><animate attributeName="opacity" values="0.25;0;0.25" dur="2.8s" begin="2.2s" repeatCount="indefinite"/></circle><circle class="spark" style="animation-delay:2.2s" r="1.3" fill="#1d1d1f"/></g><circle r="1.8" fill="#1d1d1f" opacity="0.9"><animateMotion dur="3.2s" begin="0s" repeatCount="indefinite" path="M585,104 L614,74 L643,104 L672,74 L701,104 L730,74" rotate="auto"/><animate attributeName="opacity" values="0;0.9;0.9;0" dur="3.2s" begin="0s" repeatCount="indefinite"/></circle><circle r="1.8" fill="#1d1d1f" opacity="0.9"><animateMotion dur="3.8s" begin="1.1s" repeatCount="indefinite" path="M556,164 L585,134 L614,164 L643,134 L672,164 L701,134" rotate="auto"/><animate attributeName="opacity" values="0;0.9;0.9;0" dur="3.8s" begin="1.1s" repeatCount="indefinite"/></circle><circle r="1.8" fill="#1d1d1f" opacity="0.9"><animateMotion dur="2.4s" begin="0.6s" repeatCount="indefinite" path="M730,44 L759,74 L788,44" rotate="auto"/><animate attributeName="opacity" values="0;0.9;0.9;0" dur="2.4s" begin="0.6s" repeatCount="indefinite"/></circle>

  <!-- vertical scanline sweep -->
  <rect width="2" height="230" fill="url(#scan)" opacity="0.6">
    <animate attributeName="x" values="-10;860;860" keyTimes="0;0.42;1" dur="7s" repeatCount="indefinite"/>
  </rect>

  <rect width="560" height="230" fill="url(#scrim)"/>

  <!-- animated top edge highlight -->
  <rect x="0" y="0" width="240" height="2" fill="url(#edge)" opacity="0.85">
    <animate attributeName="x" values="-240;850" dur="6s" repeatCount="indefinite"/>
  </rect>

  <text x="62" y="56" font-family="'JetBrains Mono','SFMono-Regular',ui-monospace,Menlo,Consolas,monospace" font-size="11" letter-spacing="4" fill="#86868b">BIOMEDICAL ENGINEERING · BRAIN DYNAMICS</text>

  <!-- YUDAI: soft glow + metallic + dual sheen -->
  <text x="59" y="120" font-family="ui-sans-serif,-apple-system,'Segoe UI',Helvetica,Arial,sans-serif" font-size="58" font-weight="200" letter-spacing="1" fill="#1d1d1f" opacity="0.18" filter="url(#glow)">YUDAI</text>
  <text x="59" y="120" font-family="ui-sans-serif,-apple-system,'Segoe UI',Helvetica,Arial,sans-serif" font-size="58" font-weight="200" letter-spacing="1" fill="url(#metal)">YUDAI</text>
  <g clip-path="url(#yclip)">
    <rect x="0" y="70" width="150" height="60" fill="url(#sheen)"><animate attributeName="x" values="-150;360" dur="4.5s" begin="0.5s" repeatCount="indefinite"/></rect>
    <rect x="0" y="70" width="90" height="60" fill="url(#sheen)" opacity="0.5"><animate attributeName="x" values="-90;360" dur="4.5s" begin="2.6s" repeatCount="indefinite"/></rect>
  </g>

  <text x="62" y="150" font-family="'JetBrains Mono','SFMono-Regular',ui-monospace,Menlo,Consolas,monospace" font-size="12.5" letter-spacing="2.5" fill="#86868b">neuroscience × machine learning</text>

  <g transform="translate(62,182)">
    <text font-family="'JetBrains Mono','SFMono-Regular',ui-monospace,Menlo,Consolas,monospace" font-size="13" opacity="0.9" fill="#1d1d1f">&gt;</text>
    <g><clipPath id="p0"><rect x="16" y="-13" width="0" height="18"><animate attributeName="width" values="0;0;157.2;157.2;0;0" keyTimes="0;0.0000;0.0650;0.1850;0.2500;1" dur="12.0s" repeatCount="indefinite"/></rect></clipPath><text x="16" y="0" clip-path="url(#p0)" font-family="'JetBrains Mono','SFMono-Regular',ui-monospace,Menlo,Consolas,monospace" font-size="13" fill="#1d1d1f" opacity="0.9">decoding the brain</text></g><rect y="-11" width="7.5" height="14" fill="#1d1d1f" opacity="0"><animate attributeName="x" values="16.0;16.0;173.2;173.2;16.0;16.0" keyTimes="0;0.0000;0.0650;0.1850;0.2500;1" dur="12.0s" repeatCount="indefinite"/><animate attributeName="opacity" values="0;0;1;1;0;0" keyTimes="0;0.0000;0.0650;0.1850;0.2500;1" dur="12.0s" calcMode="discrete" repeatCount="indefinite"/></rect><g><clipPath id="p1"><rect x="16" y="-13" width="0" height="18"><animate attributeName="width" values="0;0;199.2;199.2;0;0" keyTimes="0;0.2500;0.3150;0.4350;0.5000;1" dur="12.0s" repeatCount="indefinite"/></rect></clipPath><text x="16" y="0" clip-path="url(#p1)" font-family="'JetBrains Mono','SFMono-Regular',ui-monospace,Menlo,Consolas,monospace" font-size="13" fill="#1d1d1f" opacity="0.9">modeling cortical waves</text></g><rect y="-11" width="7.5" height="14" fill="#1d1d1f" opacity="0"><animate attributeName="x" values="16.0;16.0;215.2;215.2;16.0;16.0" keyTimes="0;0.2500;0.3150;0.4350;0.5000;1" dur="12.0s" repeatCount="indefinite"/><animate attributeName="opacity" values="0;0;1;1;0;0" keyTimes="0;0.2500;0.3150;0.4350;0.5000;1" dur="12.0s" calcMode="discrete" repeatCount="indefinite"/></rect><g><clipPath id="p2"><rect x="16" y="-13" width="0" height="18"><animate attributeName="width" values="0;0;182.4;182.4;0;0" keyTimes="0;0.5000;0.5650;0.6850;0.7500;1" dur="12.0s" repeatCount="indefinite"/></rect></clipPath><text x="16" y="0" clip-path="url(#p2)" font-family="'JetBrains Mono','SFMono-Regular',ui-monospace,Menlo,Consolas,monospace" font-size="13" fill="#1d1d1f" opacity="0.9">learning the operator</text></g><rect y="-11" width="7.5" height="14" fill="#1d1d1f" opacity="0"><animate attributeName="x" values="16.0;16.0;198.4;198.4;16.0;16.0" keyTimes="0;0.5000;0.5650;0.6850;0.7500;1" dur="12.0s" repeatCount="indefinite"/><animate attributeName="opacity" values="0;0;1;1;0;0" keyTimes="0;0.5000;0.5650;0.6850;0.7500;1" dur="12.0s" calcMode="discrete" repeatCount="indefinite"/></rect><g><clipPath id="p3"><rect x="16" y="-13" width="0" height="18"><animate attributeName="width" values="0;0;174.0;174.0;0;0" keyTimes="0;0.7500;0.8150;0.9350;1.0000;1" dur="12.0s" repeatCount="indefinite"/></rect></clipPath><text x="16" y="0" clip-path="url(#p3)" font-family="'JetBrains Mono','SFMono-Regular',ui-monospace,Menlo,Consolas,monospace" font-size="13" fill="#1d1d1f" opacity="0.9">from EEG to dynamics</text></g><rect y="-11" width="7.5" height="14" fill="#1d1d1f" opacity="0"><animate attributeName="x" values="16.0;16.0;190.0;190.0;16.0;16.0" keyTimes="0;0.7500;0.8150;0.9350;1.0000;1" dur="12.0s" repeatCount="indefinite"/><animate attributeName="opacity" values="0;0;1;1;0;0" keyTimes="0;0.7500;0.8150;0.9350;1.0000;1" dur="12.0s" calcMode="discrete" repeatCount="indefinite"/></rect>
  </g>

  <text x="828" y="216" font-family="'JetBrains Mono','SFMono-Regular',ui-monospace,Menlo,Consolas,monospace" font-size="9.5" letter-spacing="2" text-anchor="end" opacity="0.6" fill="#86868b">cortical wavefield — ∂ₜ u = ℒ(u)</text>
</svg>