<svg xmlns="http://www.w3.org/2000/svg" viewBox="0 0 850 230" width="850" height="230" role="img" aria-label="Yudai - Neuroscience x Machine Learning">
  <defs>
    <style>
      @keyframes blink { 0%,49% {opacity:1} 50%,100% {opacity:0} }
      @keyframes breathe { 0%,100% {opacity:.55} 50% {opacity:.8} }
      @keyframes spark { 0%,100% {opacity:.55} 50% {opacity:1} }
      .caret { animation: blink 1.1s steps(1) infinite; }
      .field { animation: breathe 6s ease-in-out infinite; }
      .spark { animation: spark 3.2s ease-in-out infinite; }
    </style>
    <linearGradient id="scrim" gradientUnits="userSpaceOnUse" x1="0" y1="0" x2="560" y2="0">
      <stop offset="0" stop-color="#0d1117" stop-opacity="0.96"/>
      <stop offset="0.6" stop-color="#0d1117" stop-opacity="0.86"/>
      <stop offset="1" stop-color="#0d1117" stop-opacity="0"/>
    </linearGradient>
    <g id="field" fill="#f5f5f7"><circle cx="34" cy="44" r="0.9"/><circle cx="63" cy="44" r="0.9"/><circle cx="92" cy="44" r="0.9"/><circle cx="121" cy="44" r="0.9"/><circle cx="150" cy="44" r="0.9"/><circle cx="179" cy="44" r="0.9"/><circle cx="208" cy="44" r="0.9"/><circle cx="237" cy="44" r="0.9"/><circle cx="266" cy="44" r="0.9"/><circle cx="295" cy="44" r="0.9"/><circle cx="324" cy="44" r="0.9"/><circle cx="353" cy="44" r="0.9"/><circle cx="382" cy="44" r="0.9"/><circle cx="411" cy="44" r="0.9"/><circle cx="440" cy="44" r="0.9"/><circle cx="469" cy="44" r="0.9"/><circle cx="498" cy="44" r="0.9"/><circle cx="527" cy="44" r="0.9"/><circle cx="556" cy="44" r="0.9"/><circle cx="585" cy="44" r="0.9"/><circle cx="614" cy="44" r="0.9"/><circle cx="643" cy="44" r="0.9"/><circle cx="672" cy="44" r="0.9"/><circle cx="701" cy="44" r="0.9"/><circle cx="730" cy="44" r="0.9"/><circle cx="759" cy="44" r="0.9"/><circle cx="788" cy="44" r="0.9"/><circle cx="34" cy="74" r="0.9"/><circle cx="63" cy="74" r="0.9"/><circle cx="92" cy="74" r="0.9"/><circle cx="121" cy="74" r="0.9"/><circle cx="150" cy="74" r="0.9"/><circle cx="179" cy="74" r="0.9"/><circle cx="208" cy="74" r="0.9"/><circle cx="237" cy="74" r="0.9"/><circle cx="266" cy="74" r="0.9"/><circle cx="295" cy="74" r="0.9"/><circle cx="324" cy="74" r="0.9"/><circle cx="353" cy="74" r="0.9"/><circle cx="382" cy="74" r="0.9"/><circle cx="411" cy="74" r="0.9"/><circle cx="440" cy="74" r="0.9"/><circle cx="469" cy="74" r="0.9"/><circle cx="498" cy="74" r="0.9"/><circle cx="527" cy="74" r="0.9"/><circle cx="556" cy="74" r="0.9"/><circle cx="585" cy="74" r="0.9"/><circle cx="614" cy="74" r="0.9"/><circle cx="643" cy="74" r="0.9"/><circle cx="672" cy="74" r="0.9"/><circle cx="701" cy="74" r="0.9"/><circle cx="730" cy="74" r="0.9"/><circle cx="759" cy="74" r="0.9"/><circle cx="788" cy="74" r="0.9"/><circle cx="34" cy="104" r="0.9"/><circle cx="63" cy="104" r="0.9"/><circle cx="92" cy="104" r="0.9"/><circle cx="121" cy="104" r="0.9"/><circle cx="150" cy="104" r="0.9"/><circle cx="179" cy="104" r="0.9"/><circle cx="208" cy="104" r="0.9"/><circle cx="237" cy="104" r="0.9"/><circle cx="266" cy="104" r="0.9"/><circle cx="295" cy="104" r="0.9"/><circle cx="324" cy="104" r="0.9"/><circle cx="353" cy="104" r="0.9"/><circle cx="382" cy="104" r="0.9"/><circle cx="411" cy="104" r="0.9"/><circle cx="440" cy="104" r="0.9"/><circle cx="469" cy="104" r="0.9"/><circle cx="498" cy="104" r="0.9"/><circle cx="527" cy="104" r="0.9"/><circle cx="556" cy="104" r="0.9"/><circle cx="585" cy="104" r="0.9"/><circle cx="614" cy="104" r="0.9"/><circle cx="643" cy="104" r="0.9"/><circle cx="672" cy="104" r="0.9"/><circle cx="701" cy="104" r="0.9"/><circle cx="730" cy="104" r="0.9"/><circle cx="759" cy="104" r="0.9"/><circle cx="788" cy="104" r="0.9"/><circle cx="34" cy="134" r="0.9"/><circle cx="63" cy="134" r="0.9"/><circle cx="92" cy="134" r="0.9"/><circle cx="121" cy="134" r="0.9"/><circle cx="150" cy="134" r="0.9"/><circle cx="179" cy="134" r="0.9"/><circle cx="208" cy="134" r="0.9"/><circle cx="237" cy="134" r="0.9"/><circle cx="266" cy="134" r="0.9"/><circle cx="295" cy="134" r="0.9"/><circle cx="324" cy="134" r="0.9"/><circle cx="353" cy="134" r="0.9"/><circle cx="382" cy="134" r="0.9"/><circle cx="411" cy="134" r="0.9"/><circle cx="440" cy="134" r="0.9"/><circle cx="469" cy="134" r="0.9"/><circle cx="498" cy="134" r="0.9"/><circle cx="527" cy="134" r="0.9"/><circle cx="556" cy="134" r="0.9"/><circle cx="585" cy="134" r="0.9"/><circle cx="614" cy="134" r="0.9"/><circle cx="643" cy="134" r="0.9"/><circle cx="672" cy="134" r="0.9"/><circle cx="701" cy="134" r="0.9"/><circle cx="730" cy="134" r="0.9"/><circle cx="759" cy="134" r="0.9"/><circle cx="788" cy="134" r="0.9"/><circle cx="34" cy="164" r="0.9"/><circle cx="63" cy="164" r="0.9"/><circle cx="92" cy="164" r="0.9"/><circle cx="121" cy="164" r="0.9"/><circle cx="150" cy="164" r="0.9"/><circle cx="179" cy="164" r="0.9"/><circle cx="208" cy="164" r="0.9"/><circle cx="237" cy="164" r="0.9"/><circle cx="266" cy="164" r="0.9"/><circle cx="295" cy="164" r="0.9"/><circle cx="324" cy="164" r="0.9"/><circle cx="353" cy="164" r="0.9"/><circle cx="382" cy="164" r="0.9"/><circle cx="411" cy="164" r="0.9"/><circle cx="440" cy="164" r="0.9"/><circle cx="469" cy="164" r="0.9"/><circle cx="498" cy="164" r="0.9"/><circle cx="527" cy="164" r="0.9"/><circle cx="556" cy="164" r="0.9"/><circle cx="585" cy="164" r="0.9"/><circle cx="614" cy="164" r="0.9"/><circle cx="643" cy="164" r="0.9"/><circle cx="672" cy="164" r="0.9"/><circle cx="701" cy="164" r="0.9"/><circle cx="730" cy="164" r="0.9"/><circle cx="759" cy="164" r="0.9"/><circle cx="788" cy="164" r="0.9"/><circle cx="34" cy="194" r="0.9"/><circle cx="63" cy="194" r="0.9"/><circle cx="92" cy="194" r="0.9"/><circle cx="121" cy="194" r="0.9"/><circle cx="150" cy="194" r="0.9"/><circle cx="179" cy="194" r="0.9"/><circle cx="208" cy="194" r="0.9"/><circle cx="237" cy="194" r="0.9"/><circle cx="266" cy="194" r="0.9"/><circle cx="295" cy="194" r="0.9"/><circle cx="324" cy="194" r="0.9"/><circle cx="353" cy="194" r="0.9"/><circle cx="382" cy="194" r="0.9"/><circle cx="411" cy="194" r="0.9"/><circle cx="440" cy="194" r="0.9"/><circle cx="469" cy="194" r="0.9"/><circle cx="498" cy="194" r="0.9"/><circle cx="527" cy="194" r="0.9"/><circle cx="556" cy="194" r="0.9"/><circle cx="585" cy="194" r="0.9"/><circle cx="614" cy="194" r="0.9"/><circle cx="643" cy="194" r="0.9"/><circle cx="672" cy="194" r="0.9"/><circle cx="701" cy="194" r="0.9"/><circle cx="730" cy="194" r="0.9"/><circle cx="759" cy="194" r="0.9"/><circle cx="788" cy="194" r="0.9"/></g>
  </defs>
  <rect width="850" height="230" rx="12" fill="#0d1117"/>
  <g class="field" opacity="0.65"><use href="#field"/></g>
  <g transform="translate(585,74)"><circle r="1" fill="#f5f5f7" opacity="0.25"><animate attributeName="r" values="1;5;1" dur="3.2s" begin="0s" repeatCount="indefinite"/><animate attributeName="opacity" values="0.25;0;0.25" dur="3.2s" begin="0s" repeatCount="indefinite"/></circle><circle class="spark" style="animation-delay:0s" r="1.3" fill="#f5f5f7"/></g><g transform="translate(643,134)"><circle r="1" fill="#f5f5f7" opacity="0.25"><animate attributeName="r" values="1;5;1" dur="3.2s" begin="0.6s" repeatCount="indefinite"/><animate attributeName="opacity" values="0.25;0;0.25" dur="3.2s" begin="0.6s" repeatCount="indefinite"/></circle><circle class="spark" style="animation-delay:0.6s" r="1.3" fill="#f5f5f7"/></g><g transform="translate(701,44)"><circle r="1" fill="#f5f5f7" opacity="0.25"><animate attributeName="r" values="1;5;1" dur="3.2s" begin="1.2s" repeatCount="indefinite"/><animate attributeName="opacity" values="0.25;0;0.25" dur="3.2s" begin="1.2s" repeatCount="indefinite"/></circle><circle class="spark" style="animation-delay:1.2s" r="1.3" fill="#f5f5f7"/></g><g transform="translate(730,164)"><circle r="1" fill="#f5f5f7" opacity="0.25"><animate attributeName="r" values="1;5;1" dur="3.2s" begin="1.8s" repeatCount="indefinite"/><animate attributeName="opacity" values="0.25;0;0.25" dur="3.2s" begin="1.8s" repeatCount="indefinite"/></circle><circle class="spark" style="animation-delay:1.8s" r="1.3" fill="#f5f5f7"/></g><g transform="translate(672,104)"><circle r="1" fill="#f5f5f7" opacity="0.25"><animate attributeName="r" values="1;5;1" dur="3.2s" begin="2.4s" repeatCount="indefinite"/><animate attributeName="opacity" values="0.25;0;0.25" dur="3.2s" begin="2.4s" repeatCount="indefinite"/></circle><circle class="spark" style="animation-delay:2.4s" r="1.3" fill="#f5f5f7"/></g><g transform="translate(759,194)"><circle r="1" fill="#f5f5f7" opacity="0.25"><animate attributeName="r" values="1;5;1" dur="3.2s" begin="0.9s" repeatCount="indefinite"/><animate attributeName="opacity" values="0.25;0;0.25" dur="3.2s" begin="0.9s" repeatCount="indefinite"/></circle><circle class="spark" style="animation-delay:0.9s" r="1.3" fill="#f5f5f7"/></g><g transform="translate(614,164)"><circle r="1" fill="#f5f5f7" opacity="0.25"><animate attributeName="r" values="1;5;1" dur="3.2s" begin="1.5s" repeatCount="indefinite"/><animate attributeName="opacity" values="0.25;0;0.25" dur="3.2s" begin="1.5s" repeatCount="indefinite"/></circle><circle class="spark" style="animation-delay:1.5s" r="1.3" fill="#f5f5f7"/></g>
  <rect width="560" height="230" fill="url(#scrim)"/>
  <text x="62" y="56"  font-family="'JetBrains Mono','SFMono-Regular',ui-monospace,Menlo,Consolas,monospace" font-size="11"   letter-spacing="4"   fill="#86868b">BIOMEDICAL ENGINEERING · BRAIN DYNAMICS</text>
  <text x="59" y="120" font-family="ui-sans-serif,-apple-system,'Segoe UI',Helvetica,Arial,sans-serif" font-size="58"   font-weight="200" letter-spacing="1" fill="#f5f5f7">YUDAI</text>
  <text x="62" y="150" font-family="'JetBrains Mono','SFMono-Regular',ui-monospace,Menlo,Consolas,monospace" font-size="12.5" letter-spacing="2.5" fill="#86868b">neuroscience × machine learning</text>
  <g transform="translate(62,182)">
    <text font-family="'JetBrains Mono','SFMono-Regular',ui-monospace,Menlo,Consolas,monospace" font-size="13" opacity="0.9" fill="#f5f5f7">&gt; decoding the brain</text>
    <rect class="caret" x="151" y="-11" width="7.5" height="14" fill="#f5f5f7"/>
  </g>
  <text x="828" y="216" font-family="'JetBrains Mono','SFMono-Regular',ui-monospace,Menlo,Consolas,monospace" font-size="9.5" letter-spacing="2" text-anchor="end" opacity="0.6" fill="#86868b">cortical wavefield — ∂ₜ u = ℒ(u)</text>
</svg>